<svg xmlns="http://www.w3.org/2000/svg"  viewBox="0 0 48 48" width="96px" height="96px"><path fill="#ef4754" d="M16,10c1.209-0.701,1-0.5,2.25-1c0.255-1.771,0.471-3.584,0.726-5.355	c0.038-0.267,0.082-0.547,0.25-0.758C19.512,2.527,20.04,2.498,20.5,2.5c2.026,0.007,4.256,0.253,6.25,0.25	c0.74-0.001,1.228-0.257,1.978-0.252c0.491,0.003,0.905,0.37,0.976,0.856c0.167,1.146,0.538,2.451,0.562,3.485	c0.015,0.624,0.108,2.036,0.108,2.036s1.861,0.684,2.5,1.25c0.265,0.234,1.125,1,1.125,1s1.537-0.419,1.875-0.5	c1.615-0.389,2.191-1.192,3.807-1.581C39.91,8.989,40.15,8.935,40.375,9c0.283,0.082,0.478,0.333,0.653,0.57	c1.391,1.88,2.398,4.687,3.79,6.567c0.405,0.547,0.83,1.239,0.557,1.863c-0.166,0.381-0.605,0.536-0.911,0.817	c-1.33,1.218-2.557,2.13-3.964,2.933c0.5,1.875,0.375,3.25,0.125,4.5c1.493,1.159,2.873,1.682,4.193,3.034	c0.202,0.207,0.335,0.463,0.508,0.694c0.269,0.357,0.114,0.673,0.017,0.999c-0.226,0.76-0.619,1.461-1.146,2.054	c-1.149,1.291-2.374,4.321-3.38,5.613c-0.307,0.394-0.851,0.489-1.292,0.254c-1.512-0.804-3.149-1.398-5.399-2.023	c-0.875,1-2.125,1.5-3.625,2.125c-0.134,1.856-0.5,3.875-0.614,5.516c-0.022,0.322-0.337,0.565-0.607,0.741	c-0.334,0.217-0.756,0.234-1.154,0.243c-2,0.045-3.875-0.209-5.875-0.25c-0.699-0.014-1.524,0.221-2.223,0.196	c-0.214-0.008-0.446-0.022-0.608-0.161c-0.186-0.159-0.223-0.428-0.244-0.671c-0.108-1.249-0.613-2.986-0.549-4.238	c0.016-0.315-0.097-1.094-0.338-1.182c-0.91-0.333-0.628-0.611-1.537-0.943c-0.561-0.205-1.5-0.875-2.066-1.49	c-1.267,0.714-3.821,1.782-5.222,2.173C9.189,39.008,8.875,39,8.625,39c-0.219,0-0.46-0.147-0.555-0.344	c-1.634-3.403-3.277-5.061-4.511-7.855c-0.097-0.219-0.072-0.474,0.057-0.676c0.819-1.289,3.51-2.5,4.76-4.125	c0.102-0.329-0.125-1.5-0.125-2.25c0-0.32,0.125-1.75,0.125-1.75s-2.696-2.136-4-3.375c-0.28-0.266-0.704-0.484-0.836-0.825	c-0.043-0.113-0.012-0.246,0.037-0.356c1.407-3.209,2.699-5.389,4.547-8.014c0.281-0.4,0.809-0.545,1.252-0.338	C10.941,9.825,12.996,10.499,14.5,11C14.5,11,15.61,10.226,16,10z"/><path fill="#fff" d="M19.75,17.5c0,0-0.25,0.625-0.25,2c0,1.469,0.25,4.156,0.25,5.625c0,1.281-0.25,5.375-0.25,5.375	s2.25-1.5,3.625-2.25s3.5-1.448,4.75-2.286C29.125,25.125,31.5,24,31.5,24s-1.25-0.625-2.125-1.125s-1.964-0.704-3.357-1.79	S19.75,17.5,19.75,17.5z"/><path fill="#010101" d="M27.646,46.005c-1.015,0-2.006-0.066-2.969-0.131c-0.803-0.053-1.61-0.107-2.438-0.125	c-0.306-0.005-0.644,0.042-1.007,0.093c-0.405,0.057-0.825,0.113-1.224,0.102c-0.229-0.008-0.612-0.022-0.916-0.281	c-0.355-0.303-0.396-0.761-0.417-1.007c-0.041-0.465-0.14-1.007-0.245-1.582c-0.171-0.936-0.348-1.904-0.306-2.726	c0.01-0.2-0.051-0.57-0.115-0.727c-0.478-0.19-0.678-0.384-0.84-0.542c-0.138-0.134-0.237-0.231-0.591-0.36	c-0.561-0.206-1.376-0.762-1.986-1.342c-1.391,0.729-3.692,1.672-4.996,2.036C9.28,39.502,8.956,39.496,8.691,39.5	c-0.481,0-0.895-0.258-1.072-0.628c-0.801-1.668-1.598-2.9-2.369-4.092c-0.779-1.204-1.514-2.341-2.149-3.777	c-0.164-0.37-0.129-0.798,0.092-1.146c0.458-0.72,1.363-1.369,2.322-2.056c0.884-0.633,1.797-1.287,2.388-2.011	c0.006-0.18-0.038-0.595-0.068-0.882C7.793,24.511,7.75,24.089,7.75,23.75c0-0.254,0.067-1.084,0.104-1.526	c-0.665-0.531-2.716-2.185-3.823-3.237c-0.076-0.072-0.165-0.14-0.254-0.208c-0.265-0.204-0.564-0.435-0.705-0.8	c-0.059-0.153-0.099-0.405,0.045-0.736c1.333-3.041,2.579-5.236,4.597-8.102C8.137,8.54,8.924,8.329,9.587,8.64	c1.458,0.683,3.407,1.332,4.834,1.807c0.345-0.238,1.027-0.705,1.328-0.879l0,0c0.866-0.502,1.05-0.567,1.494-0.724	c0.142-0.05,0.314-0.111,0.553-0.203c0.112-0.79,0.216-1.586,0.321-2.384c0.118-0.898,0.236-1.796,0.364-2.683	c0.041-0.284,0.097-0.674,0.354-0.998c0.461-0.58,1.238-0.579,1.667-0.577c1.009,0.003,2.077,0.066,3.109,0.126	c1.042,0.061,2.118,0.124,3.11,0.124c0.297-0.007,0.606-0.054,0.902-0.116c0.332-0.069,0.668-0.131,1.108-0.137	c0.731,0.004,1.362,0.557,1.468,1.284c0.061,0.415,0.149,0.851,0.236,1.288c0.155,0.768,0.314,1.562,0.331,2.258	c0.01,0.432,0.059,1.245,0.087,1.695c0.585,0.23,1.808,0.745,2.353,1.229l0.923,0.821c0.457-0.124,1.376-0.372,1.628-0.433	c0.743-0.179,1.247-0.453,1.781-0.743c0.567-0.309,1.154-0.627,2.026-0.837c0.249-0.06,0.589-0.143,0.95-0.038	c0.456,0.132,0.732,0.506,0.916,0.753c0.72,0.973,1.339,2.183,1.938,3.353c0.581,1.134,1.181,2.307,1.852,3.214	c0.31,0.418,1.035,1.398,0.613,2.361c-0.167,0.382-0.486,0.598-0.743,0.771c-0.1,0.067-0.201,0.134-0.289,0.214	c-1.267,1.161-2.429,2.038-3.726,2.808c0.39,1.681,0.288,2.98,0.098,4.045c0.487,0.359,0.968,0.661,1.436,0.954	c0.848,0.532,1.726,1.082,2.566,1.943c0.15,0.154,0.271,0.331,0.389,0.51c0.052,0.078,0.104,0.157,0.161,0.232	c0.392,0.52,0.235,1.008,0.131,1.332l-0.034,0.11c-0.245,0.823-0.678,1.599-1.252,2.244c-0.588,0.66-1.222,1.853-1.834,3.007	c-0.536,1.008-1.042,1.961-1.525,2.581c-0.45,0.578-1.258,0.742-1.921,0.389c-1.352-0.718-2.861-1.292-5.007-1.901	c-0.87,0.872-2.007,1.364-3.308,1.905c-0.073,0.865-0.188,1.752-0.3,2.614c-0.121,0.928-0.234,1.803-0.289,2.593	c-0.043,0.614-0.618,0.986-0.835,1.126c-0.466,0.302-1.014,0.314-1.414,0.323C27.972,46.003,27.809,46.005,27.646,46.005z M22.187,44.75c0.025,0,0.049,0,0.074,0c0.844,0.018,1.666,0.072,2.483,0.127c1.146,0.077,2.228,0.149,3.37,0.123	c0.364-0.008,0.682-0.026,0.893-0.163c0.363-0.234,0.38-0.344,0.381-0.356c0.057-0.82,0.173-1.71,0.295-2.653	c0.124-0.95,0.251-1.933,0.319-2.865c0.013-0.188,0.132-0.353,0.306-0.425l0.139-0.058c1.414-0.589,2.531-1.054,3.302-1.935	c0.127-0.145,0.323-0.204,0.51-0.153c2.376,0.66,4.021,1.277,5.5,2.064c0.233,0.125,0.513,0.074,0.663-0.121	c0.43-0.552,0.916-1.467,1.431-2.435c0.641-1.206,1.303-2.453,1.971-3.203c0.478-0.537,0.838-1.181,1.041-1.864l0.041-0.13	c0.094-0.293,0.089-0.336,0.022-0.425c-0.069-0.092-0.132-0.187-0.195-0.282c-0.084-0.126-0.165-0.254-0.271-0.363	c-0.757-0.775-1.546-1.271-2.382-1.794c-0.565-0.354-1.15-0.721-1.76-1.194c-0.15-0.116-0.221-0.307-0.184-0.493	c0.228-1.137,0.371-2.442-0.118-4.273c-0.059-0.22,0.038-0.451,0.235-0.563c1.364-0.777,2.559-1.662,3.874-2.867	c0.124-0.113,0.264-0.21,0.405-0.305c0.18-0.122,0.335-0.227,0.386-0.343c0.167-0.383-0.18-0.931-0.501-1.365	c-0.72-0.973-1.339-2.183-1.938-3.353c-0.581-1.134-1.181-2.307-1.852-3.214c-0.109-0.147-0.258-0.349-0.391-0.388	c-0.106-0.031-0.289,0.015-0.437,0.05c-0.745,0.179-1.249,0.453-1.782,0.744c-0.567,0.309-1.154,0.627-2.025,0.837	c-0.335,0.08-1.86,0.496-1.861,0.496c-0.164,0.043-0.337,0.003-0.464-0.109L32.543,10.5c-0.466-0.414-1.848-0.974-2.341-1.155	c-0.186-0.068-0.313-0.239-0.327-0.436c0,0-0.094-1.426-0.109-2.057c-0.014-0.608-0.165-1.359-0.311-2.085	c-0.091-0.454-0.183-0.908-0.246-1.34c-0.036-0.243-0.244-0.427-0.484-0.429c-0.319-0.011-0.605,0.056-0.9,0.116	c-0.331,0.069-0.643,0.142-1.104,0.136c-1.021,0-2.112-0.064-3.168-0.125C22.534,3.065,21.48,3.003,20.498,3	c-0.371,0.003-0.741,0.022-0.88,0.199c-0.088,0.111-0.121,0.336-0.146,0.518c-0.127,0.884-0.245,1.778-0.362,2.672	c-0.118,0.898-0.236,1.796-0.364,2.683c-0.025,0.177-0.144,0.327-0.31,0.393c-0.406,0.162-0.661,0.252-0.86,0.322	c-0.403,0.143-0.539,0.19-1.324,0.646l0,0c-0.305,0.177-1.161,0.766-1.465,0.978c-0.13,0.09-0.293,0.114-0.444,0.064L14.119,11.4	c-1.452-0.483-3.44-1.145-4.956-1.855C8.939,9.441,8.675,9.513,8.532,9.717c-1.976,2.806-3.195,4.954-4.498,7.927	c0.012,0.08,0.193,0.22,0.354,0.343c0.117,0.09,0.232,0.181,0.333,0.275c1.272,1.209,3.939,3.324,3.966,3.345	c0.132,0.104,0.202,0.268,0.188,0.436C8.824,22.61,8.75,23.531,8.75,23.75c0,0.309,0.042,0.692,0.08,1.054	c0.071,0.676,0.107,1.072,0.023,1.344c-0.017,0.057-0.045,0.11-0.081,0.157c-0.676,0.879-1.692,1.606-2.674,2.31	c-0.878,0.629-1.707,1.223-2.061,1.779c-0.041,0.064-0.048,0.143-0.021,0.206c0.603,1.364,1.317,2.468,2.073,3.638	c0.788,1.218,1.602,2.477,2.431,4.203c0.031,0.052,0.14,0.061,0.202,0.061c0.238,0,0.444-0.004,0.605-0.049	c1.332-0.371,3.863-1.424,5.111-2.126c0.201-0.113,0.456-0.074,0.613,0.097c0.552,0.6,1.429,1.198,1.871,1.359	c0.555,0.203,0.772,0.414,0.946,0.583c0.138,0.134,0.237,0.231,0.591,0.36c0.706,0.258,0.666,1.663,0.666,1.677	c-0.036,0.705,0.13,1.615,0.291,2.495c0.109,0.599,0.212,1.164,0.257,1.674c0.022,0.253,0.054,0.318,0.071,0.334	c0.041,0.033,0.237,0.04,0.302,0.042c0.315,0.013,0.669-0.039,1.048-0.093C21.454,44.802,21.826,44.75,22.187,44.75z M16,10h0.01H16	z"/><path fill="#010101" d="M19.5,31c-0.086,0-0.172-0.022-0.249-0.066c-0.165-0.095-0.262-0.274-0.25-0.464	c0.002-0.041,0.249-4.093,0.249-5.345c0-0.719-0.063-1.768-0.124-2.783C19.064,21.313,19,20.25,19,19.5	c0-1.43,0.256-2.113,0.286-2.186c0.052-0.131,0.157-0.233,0.289-0.283c0.133-0.048,0.279-0.04,0.403,0.023	c0.201,0.103,4.934,2.534,6.347,3.636c0.868,0.677,1.617,0.993,2.277,1.271c0.359,0.151,0.698,0.294,1.021,0.479	c0.853,0.487,2.088,1.105,2.101,1.112c0.171,0.085,0.278,0.261,0.276,0.453s-0.113,0.365-0.286,0.446	c-0.023,0.011-2.356,1.119-3.561,1.927c-0.763,0.512-1.809,0.963-2.821,1.399c-0.726,0.312-1.411,0.607-1.968,0.912	c-1.339,0.73-3.564,2.212-3.587,2.227C19.693,30.972,19.597,31,19.5,31z M20.089,18.239C20.042,18.536,20,18.954,20,19.5	c0,0.719,0.063,1.768,0.124,2.783c0.062,1.029,0.126,2.093,0.126,2.842c0,0.898-0.118,3.111-0.192,4.412	c0.786-0.508,1.966-1.255,2.828-1.726c0.598-0.326,1.304-0.63,2.051-0.952c0.97-0.418,1.973-0.85,2.659-1.311	c0.784-0.525,1.972-1.148,2.788-1.558c-0.396-0.207-0.861-0.455-1.257-0.681c-0.28-0.16-0.584-0.287-0.914-0.426	c-0.682-0.288-1.53-0.646-2.503-1.403C24.647,20.652,21.407,18.929,20.089,18.239z"/></svg>